<svg width="128" height="128" xmlns="http://www.w3.org/2000/svg">

 <title/>
 <g>
  <title>background</title>
  <rect fill="none" id="canvas_background" height="402" width="582" y="-1" x="-1"/>
 </g>
 <g>
  <title>Layer 1</title>
  <path stroke="#000000" fill="#dd5e58" id="svg_1" d="m79.085,53.244977l-13.13413,-23.5915a1.99866,1.99866 0 0 0 0.04718,-0.42413l0,-9.94922l3.35742,0a2,2 0 0 0 0,-4l-3.35742,0l0,-3.10156a2,2 0 0 0 -4,0l0,3.10156l-3.35645,0a2,2 0 0 0 0,4l3.35645,0l0,9.94922a1.99874,1.99874 0 0 0 0.04718,0.4242l-13.13312,23.59143a1.50024,1.50024 0 0 0 1.31055,2.22949l27.55175,0a1.50024,1.50024 0 0 0 1.31059,-2.22949z" class="cls-1"/>
  <path stroke="#000000" fill="#eddfca" id="svg_2" d="m51.2832,64.55078a1.49984,1.49984 0 1 0 -2.12109,-2.12109l-23.72461,23.72363a1.50062,1.50062 0 0 0 -0.43945,1.06055l0,26.78613a1.50039,1.50039 0 0 0 1.5,1.5l23.72461,0a1.5,1.5 0 0 0 0.00036,-3l0,-46.8891l1.06018,-1.06012z" class="cls-2"/>
  <path stroke="#000000" fill="#eddfca" id="svg_3" d="m102.55957,86.15332l-23.72457,-23.72363a1.49984,1.49984 0 0 0 -2.12109,2.12109l1.06018,1.06012l0,46.8891a1.5,1.5 0 0 0 0.00036,3l23.72364,0a1.50039,1.50039 0 0 0 1.5,-1.5l0.001,-26.78613a1.50062,1.50062 0 0 0 -0.43952,-1.06055z" class="cls-2"/>
  <path stroke="#000000" fill="#f6ecd9" id="svg_4" d="m77.77441,52.2959l-27.55175,0a1.50038,1.50038 0 0 0 -1.5,1.5l0,61.7041l30.55175,0l0,-61.7041a1.50038,1.50038 0 0 0 -1.5,-1.5z" class="cls-3"/>
  <path stroke="#000000" fill="#ad9584" id="svg_5" d="m54.80176,115.5l0,-19.47852c0,-8.50195 8.14746,-12.91308 8.49414,-13.09668a1.49576,1.49576 0 0 1 1.4043,0c0.34668,0.1836 8.49511,4.59473 8.49511,13.09668l0,19.47852l-18.39355,0z" class="cls-4"/>
  <path stroke="#000000" fill="#847164" id="svg_6" d="m82.59766,115.5l0,-13.9668c0,-6.48047 6.1875,-9.8291 6.45117,-9.96875a1.49933,1.49933 0 0 1 1.40332,0c0.26269,0.13965 6.44922,3.48828 6.44922,9.96875l0,13.9668l-14.30371,0z" class="cls-5"/>
  <path stroke="#000000" fill="#847164" id="svg_7" d="m31.0957,115.5l0,-13.9668c0,-6.48047 6.18653,-9.8291 6.44922,-9.96875a1.49933,1.49933 0 0 1 1.40332,0c0.26367,0.13965 6.45117,3.48828 6.45117,9.96875l0,13.9668l-14.30371,0z" class="cls-5"/>
  <path stroke="#000000" fill="#9ec2c6" id="svg_8" d="m63.99805,74.833a8.07959,8.07959 0 1 1 8.08007,-8.08008a8.08877,8.08877 0 0 1 -8.08007,8.08008z" class="cls-6"/>
 </g>
</svg>